<?xml version="1.0" encoding="UTF-8"?>
<svg id="Layer_1" xmlns="http://www.w3.org/2000/svg" version="1.1" viewBox="0 0 832.25 1024">
  <!-- Generator: Adobe Illustrator 29.8.5, SVG Export Plug-In . SVG Version: 2.1.1 Build 2)  -->
  <defs>
    <style>
      .st0 {
        fill: #fff;
      }
    </style>
  </defs>
  <g>
    <path class="st0" d="M55.25,957.85h54.58v9.93h-54.58c-2.69,0-4.89,2.26-4.89,4.96v19.85c0,2.69,2.2,4.89,4.89,4.89h39.7c2.62,0,5.03-2.2,5.03-4.89v-4.96h-29.84v-9.92h39.7v14.88c0,8.15-6.66,14.88-14.89,14.88h-39.7c-8.15,0-14.88-6.73-14.88-14.88v-19.85c0-8.22,6.73-14.89,14.88-14.89Z"/>
    <path class="st0" d="M151.01,957.85h54.58v9.93h-54.58c-2.76,0-4.96,2.26-4.96,4.96v4.96h59.54v9.92h-59.54v4.96c0,2.69,2.2,4.89,4.96,4.89h54.58v9.99h-54.58c-8.22,0-14.96-6.73-14.96-14.88v-19.85c0-8.22,6.73-14.89,14.96-14.89Z"/>
    <path class="st0" d="M241.74,1007.48h-9.92v-41.47c.07-4.54,3.69-8.15,8.22-8.15,3.05,0,5.53,1.63,7.02,4.04l21.97,35.23,22.05-35.3c1.42-2.34,4.04-3.97,7.02-3.97,4.46,0,8.15,3.61,8.15,8.15v41.47h-9.92v-35.3l-19.49,31.26c-1.49,2.41-4.04,4.04-7.09,4.04h-1.42c-2.98,0-5.6-1.63-7.02-3.97l-19.56-31.33v35.3Z"/>
    <path class="st0" d="M342.4,972.74c0,2.76,2.27,4.96,4.96,4.96h39.7c8.22,0,14.89,6.66,14.89,14.88s-6.66,14.88-14.89,14.88h-54.58v-9.99h54.58c2.69,0,4.96-2.2,4.96-4.89s-2.27-4.96-4.96-4.96h-39.7c-8.15,0-14.88-6.67-14.88-14.88s6.73-14.89,14.88-14.89h54.58v9.93h-54.58c-2.69,0-4.96,2.26-4.96,4.96Z"/>
    <path class="st0" d="M457.93,1007.48v-39.69h-29.77v-9.93h69.47v9.93h-29.77v39.69h-9.92Z"/>
    <path class="st0" d="M578.36,1007.48h-39.63c-8.22,0-14.88-6.73-14.88-14.88v-19.85c0-8.22,6.66-14.89,14.88-14.89h39.63c8.29,0,14.88,6.67,14.88,14.89v19.85c0,8.15-6.59,14.88-14.88,14.88ZM538.74,997.48h39.63c2.83,0,5.03-2.2,5.03-4.89v-19.85c0-2.7-2.2-4.96-5.03-4.96h-39.63c-2.76,0-4.96,2.26-4.96,4.96v19.85c0,2.69,2.2,4.89,4.96,4.89Z"/>
    <path class="st0" d="M679.01,957.85h9.99v40.97c-.07,4.75-3.97,8.65-8.72,8.65-1.91,0-3.83-.71-5.25-1.84l-45.65-36.44v38.28h-9.92v-40.97c0-4.82,3.9-8.65,8.72-8.65,1.91,0,3.76.64,5.24,1.84l45.58,36.44v-38.28Z"/>
    <path class="st0" d="M730.19,957.85h54.58v9.93h-54.58c-2.76,0-4.96,2.26-4.96,4.96v4.96h59.54v9.92h-59.54v4.96c0,2.69,2.2,4.89,4.96,4.89h54.58v9.99h-54.58c-8.22,0-14.96-6.73-14.96-14.88v-19.85c0-8.22,6.73-14.89,14.96-14.89Z"/>
  </g>
  <path id="Black" class="st0" d="M201.33,485.44l5.72,14.49.26,6.65c-1.12.95-1.75,2.42-1.53,3.97.34,2.41,2.57,4.09,4.98,3.75.39-.05.75-.17,1.09-.32l10.39,9.54.07.17c-.53-.13-1.09-.17-1.67-.09-2.41.34-4.09,2.57-3.75,4.98.34,2.41,2.57,4.09,4.98,3.75,1.41-.2,2.56-1.06,3.21-2.21l1.56,3.61,1.9,2.86c-.25,0-.5,0-.76.03-3.27.46-5.55,3.49-5.09,6.76.46,3.27,3.49,5.55,6.76,5.09,2.13-.3,3.82-1.7,4.62-3.53l3.35,5.05-4.38,5.13.88,1.01c-.69.9-1.03,2.07-.86,3.28.34,2.41,2.57,4.09,4.98,3.75,2.41-.34,4.09-2.57,3.75-4.98-.03-.22-.09-.43-.16-.64l3.15-3.15,5.64,6.83c-1.86.72-3.06,2.65-2.77,4.71.34,2.41,2.57,4.09,4.98,3.75,1.34-.19,2.44-.98,3.1-2.04l.63.77-3.23,2.99-.1.63c-.09,0-.18,0-.28.01-3.27.46-5.55,3.49-5.09,6.76.46,3.27,3.49,5.55,6.76,5.09,2.68-.38,4.67-2.5,5.05-5.05.33,1.61,1.51,2.86,3.01,3.32-.26.82-.36,1.71-.23,2.62.46,3.27,3.49,5.55,6.76,5.09.14-.02.27-.07.4-.1l11.26,11.41-2.04,1.67c-.24,0-.48,0-.73.03-3.27.46-5.55,3.49-5.09,6.76.46,3.27,3.49,5.55,6.76,5.09,1.12-.16,2.11-.63,2.93-1.3-.17.7-.22,1.44-.11,2.2.46,3.27,3.49,5.55,6.76,5.09.33-.05.64-.14.95-.23.62,2.03,2.64,3.38,4.81,3.08,1.85-.26,3.26-1.65,3.66-3.36l13.41,15.65c-.76-.37-1.63-.53-2.53-.4-2.41.34-4.09,2.57-3.75,4.98.34,2.41,2.57,4.09,4.98,3.75.34,2.41,2.57,4.09,4.98,3.75,1.89-.27,3.32-1.71,3.68-3.49l1.78,2.07,18.94,19.73c-2.22.49-3.75,2.6-3.42,4.9.34,2.41,2.57,4.09,4.98,3.75,1.8-.25,3.2-1.57,3.64-3.23l16.13,16.81-160.07-203.02ZM267.92,576.44c-.05-.13-.11-.24-.17-.37l.45-.06-.28.42ZM314.45,639.19s0,0,0,0h0c-.03-.24-.1-.47-.17-.7l.58.68c-.14,0-.27,0-.41.02ZM210.1,537.52c.34,2.41-1.34,4.64-3.75,4.98-2.41.34-4.64-1.34-4.98-3.75-.34-2.41,1.34-4.64,3.75-4.98,2.41-.34,4.64,1.34,4.98,3.75ZM174.42,562.59c.34,2.41-1.34,4.64-3.75,4.98-2.41.34-4.64-1.34-4.98-3.75-.34-2.41,1.34-4.64,3.75-4.98,2.41-.34,4.64,1.34,4.98,3.75ZM211.41,553.78c.34,2.41-1.34,4.64-3.75,4.98-2.41.34-4.64-1.34-4.98-3.75-.34-2.41,1.34-4.64,3.75-4.98,2.41-.34,4.64,1.34,4.98,3.75ZM263.17,616.43c2.41-.34,4.64,1.34,4.98,3.75.34,2.41-1.34,4.64-3.75,4.98-2.41.34-4.64-1.34-4.98-3.75-.34-2.41,1.34-4.64,3.75-4.98ZM270.54,602.54c.34,2.41-1.34,4.64-3.75,4.98-2.41.34-4.64-1.34-4.98-3.75-.34-2.41,1.34-4.64,3.75-4.98,2.41-.34,4.64,1.34,4.98,3.75ZM259.54,615.77c.34,2.41-1.34,4.64-3.75,4.98-2.41.34-4.64-1.34-4.98-3.75-.34-2.41,1.34-4.64,3.75-4.98,2.41-.34,4.64,1.34,4.98,3.75ZM277.99,628.64c-.34-2.41,1.34-4.64,3.75-4.98,2.41-.34,4.64,1.34,4.98,3.75.34,2.41-1.34,4.64-3.75,4.98-2.41.34-4.64-1.34-4.98-3.75ZM232.41,614.83c2.41-.34,4.64,1.34,4.98,3.75.34,2.41-1.34,4.64-3.75,4.98-2.41.34-4.64-1.34-4.98-3.75-.34-2.41,1.34-4.64,3.75-4.98ZM200.55,665.54c-2.41.34-4.64-1.34-4.98-3.75-.34-2.41,1.34-4.64,3.75-4.98,2.41-.34,4.64,1.34,4.98,3.75.34,2.41-1.34,4.64-3.75,4.98ZM239.85,580.74c.34,2.41-1.34,4.64-3.75,4.98-2.41.34-4.64-1.34-4.98-3.75-.34-2.41,1.34-4.64,3.75-4.98,2.41-.34,4.64,1.34,4.98,3.75ZM237.48,572.59c-.34-2.41,1.34-4.64,3.75-4.98,2.41-.34,4.64,1.34,4.98,3.75.34,2.41-1.34,4.64-3.75,4.98-2.41.34-4.64-1.34-4.98-3.75ZM307.17,651.75c.34,2.41-1.34,4.64-3.75,4.98-2.41.34-4.64-1.34-4.98-3.75-.34-2.41,1.34-4.64,3.75-4.98,2.41-.34,4.64,1.34,4.98,3.75ZM230.47,638.29c2.41-.34,4.64,1.34,4.98,3.75.34,2.41-1.34,4.64-3.75,4.98-2.41.34-4.64-1.34-4.98-3.75-.34-2.41,1.34-4.64,3.75-4.98ZM213.94,620.83c2.41-.34,4.64,1.34,4.98,3.75.34,2.41-1.34,4.64-3.75,4.98-2.41.34-4.64-1.34-4.98-3.75-.34-2.41,1.34-4.64,3.75-4.98ZM259.54,597.21c.34,2.41-1.34,4.64-3.75,4.98-.25.04-.5.04-.75.03-.41,1.7-1.82,3.07-3.66,3.33-2.41.34-4.64-1.34-4.98-3.75-.34-2.41,1.34-4.64,3.75-4.98.25-.04.5-.04.75-.03.41-1.7,1.82-3.07,3.66-3.33,2.41-.34,4.64,1.34,4.98,3.75ZM218.34,581.4c2.41-.34,4.64,1.34,4.98,3.75.34,2.41-1.34,4.64-3.75,4.98-2.41.34-4.64-1.34-4.98-3.75-.34-2.41,1.34-4.64,3.75-4.98ZM227.73,564.7c.34,2.41-1.34,4.64-3.75,4.98-2.41.34-4.64-1.34-4.98-3.75-.34-2.41,1.34-4.64,3.75-4.98,2.41-.34,4.64,1.34,4.98,3.75ZM272.55,645.89c.34,2.41-1.34,4.64-3.75,4.98-2.41.34-4.64-1.34-4.98-3.75-.34-2.41,1.34-4.64,3.75-4.98,2.41-.34,4.64,1.34,4.98,3.75ZM568.83,39.4c-.34-2.41,1.34-4.64,3.75-4.98,2.41-.34,4.64,1.34,4.98,3.75.34,2.41-1.34,4.64-3.75,4.98-2.41.34-4.64-1.34-4.98-3.75ZM487.46,21.54c-.34-2.41,1.34-4.64,3.75-4.98,2.41-.34,4.64,1.34,4.98,3.75.34,2.41-1.34,4.64-3.75,4.98-2.41.34-4.64-1.34-4.98-3.75ZM755.07,173.74c.34,2.41-1.34,4.64-3.75,4.98-2.41.34-4.64-1.34-4.98-3.75-.34-2.41,1.34-4.64,3.75-4.98,2.41-.34,4.64,1.34,4.98,3.75ZM580.37,41.11c-.34-2.41,1.34-4.64,3.75-4.98,2.41-.34,4.64,1.34,4.98,3.75.34,2.41-1.34,4.64-3.75,4.98-2.41.34-4.64-1.34-4.98-3.75ZM577.39,45.51c2.41-.34,4.64,1.34,4.98,3.75.34,2.41-1.34,4.64-3.75,4.98-2.41.34-4.64-1.34-4.98-3.75-.34-2.41,1.34-4.64,3.75-4.98ZM414.58,31.81c-.34-2.41,1.34-4.64,3.75-4.98,2.41-.34,4.64,1.34,4.98,3.75.34,2.41-1.34,4.64-3.75,4.98-2.41.34-4.64-1.34-4.98-3.75ZM801.76,320.23c.4,2.86-1.59,5.51-4.45,5.91-2.86.4-5.51-1.59-5.91-4.45s1.59-5.51,4.45-5.91c2.86-.4,5.51,1.59,5.91,4.45ZM592.17,44.53c-.34-2.41,1.34-4.64,3.75-4.98,2.41-.34,4.64,1.34,4.98,3.75.34,2.41-1.34,4.64-3.75,4.98-2.41.34-4.64-1.34-4.98-3.75ZM484.07,35.35c-.34-2.41,1.34-4.64,3.75-4.98,2.41-.34,4.64,1.34,4.98,3.75.34,2.41-1.34,4.64-3.75,4.98-2.41.34-4.64-1.34-4.98-3.75ZM787.46,356.82c2.41-.34,4.64,1.34,4.98,3.75.34,2.41-1.34,4.64-3.75,4.98-2.41.34-4.64-1.34-4.98-3.75-.34-2.41,1.34-4.64,3.75-4.98ZM512.83,26.57c-.34-2.41,1.34-4.64,3.75-4.98,2.41-.34,4.64,1.34,4.98,3.75.34,2.41-1.34,4.64-3.75,4.98-2.41.34-4.64-1.34-4.98-3.75ZM777.62,341.75c.34,2.41-1.34,4.64-3.75,4.98-2.41.34-4.64-1.34-4.98-3.75-.34-2.41,1.34-4.64,3.75-4.98,2.41-.34,4.64,1.34,4.98,3.75ZM801.64,307.52c.34,2.41-1.34,4.64-3.75,4.98-2.41.34-4.64-1.34-4.98-3.75-.34-2.41,1.34-4.64,3.75-4.98,2.41-.34,4.64,1.34,4.98,3.75ZM417.45,54.04c.34,2.41-1.34,4.64-3.75,4.98-2.41.34-4.64-1.34-4.98-3.75s1.34-4.64,3.75-4.98c2.41-.34,4.64,1.34,4.98,3.75ZM786.52,263.38c-.34-2.41,1.34-4.64,3.75-4.98,2.41-.34,4.64,1.34,4.98,3.75.34,2.41-1.34,4.64-3.75,4.98-2.41.34-4.64-1.34-4.98-3.75ZM790.56,380.81c-.34-2.41,1.34-4.64,3.75-4.98,2.41-.34,4.64,1.34,4.98,3.75.34,2.41-1.34,4.64-3.75,4.98-2.41.34-4.64-1.34-4.98-3.75ZM780.28,242.71c-.34-2.41,1.34-4.64,3.75-4.98,2.41-.34,4.64,1.34,4.98,3.75.04.25.04.5.03.74.61-.5,1.34-.86,2.15-.97,2.41-.34,4.64,1.34,4.98,3.75.34,2.38-1.31,4.59-3.68,4.97-.68,1.11-1.81,1.86-3.12,2.04-2.41.34-4.64-1.34-4.98-3.75-.09-.61-.04-1.21.12-1.77-2.1-.06-3.93-1.62-4.23-3.78ZM770.58,228.86c-.34-2.41,1.34-4.64,3.75-4.98s4.64,1.34,4.98,3.75c.34,2.41-1.34,4.64-3.75,4.98-2.41.34-4.64-1.34-4.98-3.75ZM795.67,273.07c2.41-.34,4.64,1.34,4.98,3.75.34,2.41-1.34,4.64-3.75,4.98-2.41.34-4.64-1.34-4.98-3.75-.34-2.41,1.34-4.64,3.75-4.98ZM743.8,164.78c-.34-2.41,1.34-4.64,3.75-4.98,2.41-.34,4.64,1.34,4.98,3.75.34,2.41-1.34,4.64-3.75,4.98-2.41.34-4.64-1.34-4.98-3.75ZM732.21,166.42c-.34-2.41,1.34-4.64,3.75-4.98,2.41-.34,4.64,1.34,4.98,3.75.34,2.41-1.34,4.64-3.75,4.98-2.41.34-4.64-1.34-4.98-3.75ZM425.38,30.29c-.34-2.41,1.34-4.64,3.75-4.98,2.41-.34,4.64,1.34,4.98,3.75.34,2.41-1.34,4.64-3.75,4.98-2.41.34-4.64-1.34-4.98-3.75ZM507.89,79.77c.34,2.41-1.34,4.64-3.75,4.98-2.41.34-4.64-1.34-4.98-3.75-.34-2.41,1.34-4.64,3.75-4.98,2.41-.34,4.64,1.34,4.98,3.75ZM522.49,84.38c.34,2.41-1.34,4.64-3.75,4.98-2.41.34-4.64-1.34-4.98-3.75-.34-2.41,1.34-4.64,3.75-4.98,2.41-.34,4.64,1.34,4.98,3.75ZM266.98,738.67l33.93,17.15-37.53,6.07-5.83,37.57-17.37-33.82-37.53,6.07,26.8-26.97-17.37-33.82,33.93,17.15,26.8-26.97-5.83,37.57ZM789.96,453.95c-.55-1.37-1.76-2.37-3.2-2.67-.47-3.04-1.02-6.07-1.66-9.09,1.8-.75,2.96-2.64,2.67-4.66-.32-2.3-2.37-3.91-4.65-3.76-8.73-34.01-26.7-67.7-45.62-103.05-.31-.58-7.05,3.25-7.05,3.25l-2.93-3.8,4.37-9.89,5.25-3.73-6.99-3.82.34-4.06-4.6.44c-1.02-1.91-2.05-3.84-3.09-5.79l3.3-4.05-1.95-1.48,2.88-1.56,4.98,2,.16-9.86-17.75-.94c-3.75-7.2-7.56-14.67-11.42-22.44-.26-.52,0-1.17.56-1.33,5.83-1.67,11.75-.16,17.56,3.55l-1.54,3.37,4.15-1.55c1.45,1.09,2.89,2.3,4.32,3.64l-.03,4.01,3.58-.44c10.5,11.3,20.24,28.26,27.98,44.58.02-3.48-.21-6.91-.64-10.28l8.7-.19,1.42-5.52-4.04-.97-1.99-5.34-7.4-2.95c-.4-1.28-.83-2.55-1.28-3.81l7.5-3.56.96-3.87-3.47-2.01-2.17-2.78-.75-4.29-7.8,3.37c-.94-1.82-1.92-3.61-2.93-5.37l.9-14.38-7.86,3.5c-2.08-2.95-4.22-5.77-6.38-8.46l-4.19-12.44-4.88-.2,2.39-6.74-9.9-1.21-1.55-5.2-8.59-1.18c-2.49-2.03-4.39-3.44-5.45-4.16-.51-.34-.55-1.06-.1-1.48.63-.58,1.74-1.33,3.58-1.92l-1.96-2.58,4.44-3.48,5.82-1.02-.99-5.61-9.87-.47-.65-3.68,2.45-5.8,9.32.89,1.08,6.13,7.71,4.33,1.35,7.66.69,3.91.71,4.05,7.37,2.38,6.4,4.08,5.39,5.9-.88,7.49,5.12,1.37,3.41-1.74,2.64-9.88-7.97-9.71-7.13-2.42-3.9,1.95-.96-5.46-5.31-2.59,1.14-4.65,11.15,3.75.7,3.98,8.81,4.65,5.41,6.98c5.11,2.06,10.66,5.57,16.74,8.36.87.4-11.63-12.29-12.19-13.07-12.16-16.87-47.09-48.44-119.28-64.11-.58-.13-.78-.87-.48-1.38,2.65-4.59,8.51-7.89,15.89-10.23l2.87-8.35,14.63.59,3.75-3.82,13.06,2.44,2.14-.38,7.34,4.39c4.26.04,8.07.2,11.14.44,0,.13,0,.27.03.4.32,1.79,2.03,2.99,3.82,2.68,1.79-.32,2.99-2.03,2.68-3.82-.32-1.79-2.03-2.99-3.82-2.68-.59.1-1.11.37-1.54.73-5.41-2.38-13.88-5.44-25.31-7.65,0,0,.01,0,.02,0,1.79-.32,2.99-2.03,2.68-3.82-.32-1.79-2.03-2.99-3.82-2.68-1.79.32-2.99,2.03-2.68,3.82.17.99.79,1.79,1.59,2.27-18.95-3.35-45.55-4.24-79.49,3.7-19.98,4.68-29.92,5.57-36.52,4.8-.76-2.81-1.62-5.91-1.72-5.86-.11.06-3.45,2.17-6.12,3.87-.36-.14-.72-.28-1.08-.42-1.07-.43-5.22-2.93-6.08-3.39,2-2.26,3.88-4.4,3.88-4.4l-1.46-2.51-6.48-1.32c-.39-4.08.54-8.36,2.72-9.86,1.04-.71,4.82,2.53,7.68,3.99v5.22s4.33.9,4.33.9l2.11-.75,2.12-6.98c3.1-1.04,6.6-2.06,10.4-3.05,5.65-1.48,2.73-9.83,9.4-11.19,4.38-.89,18.15,5.18,22.75,4.35,6.31-1.13,12.74-2.2,19.07-3.2l2.53,7.82,4.86,2.5.78-11.57c1.48-.22,2.94-.44,4.39-.65l22.76,3.96-2.74-6.74c9.73-1.29,17.65-2.24,22.23-2.8,1.01-.12,1.14-1.53.17-1.83-17.99-5.58-93.84-25.72-186.37-1.88l-1.68,6.42-17.02-1.05c-.21.07-.42.14-.63.2l2.19-6.92-9.1-1.46-3.25.57-1.21,11.65c-1.65.59-3.31,1.19-4.97,1.81l-2.42,9.3-15.6-.54-1.06,5.21-9.98-1.67c-.48.23-1.06.02-1.28-.47-.15-.34-.28-.68-.42-1.02l2.52-7.48,9.07-.2-.48-2.71-6.86-.89-2.81-2.3-4.04.71c.01-.38.02-.77.06-1.15l-2.93-.8,4.04-14.03,2.48.15,2.82.67c.15-.16.31-.32.46-.47l6.74.41s1.29,7.34,3.11,7.72c1.82.38,4.75-3.98,4.75-3.98l7.12,1.9.86-5.07-8.55-.08-4.17-2.62,2.85-7.33,1.38-8.39,14.26,2.25c42.52-13.02,110.43-10.75,127.96-9.9,1.01.05,1.38-1.31.48-1.78-6.71-3.45-24.02-6.03-44.13-12.35l3.54-8.04-28.39-8.32-1.82,4.34c-8.08-1.56-16.84-1.87-25.85-1.58l-7.09,4.86s-3.39.15-3.25.57c.14.43-5.06,9.35-5.06,9.35l-16.37-.79s1.28-6.35,2.34-11.82c0,0,0,0,0,0-8.54.96-16.09-.66-24.27.58-.77-.39-1.66-.55-2.58-.42-2.41.34-4.09,2.57-3.75,4.98.03.19.09.37.14.56l-2.57,9.33c-.13.46-.57.75-1.04.68l-9.47-1.31c-.23-.03-.46.02-.65.15l-22.64,15.14c-.09.04-.17.08-.26.12l-7.51,2.18c-.36.1-.62.41-.67.77l-1.78,12.59c-.06.43-.41.77-.85.81l-6.4.6c-.38.04-.7.29-.81.66l-2.37,7.56c-.15.49-.66.76-1.15.63l-5.38-1.49c-.42-.12-.86.07-1.07.45l-1.9,3.4c-.17.31-.51.5-.87.48l-8.77-.4c-.39-.02-.75.2-.9.56-.73,1.65-2.83,6.22-3.62,6.1-.79-.12-6.24.17-8.31.29-.46.03-.87-.29-.97-.74l-1.32-5.99c-.03-.14-.03-.27,0-.41.18-.77.78-3.56.12-4.25-.7-.73,10.02.39,12.09.62.22.02.45-.03.63-.16l1.98-1.35c.45-.31.55-.94.2-1.37l-1.62-2.03c-.12-.15-.28-.26-.45-.31l-7.8-2.45c-.52-.16-.79-.73-.6-1.23l4.38-11.59c.13-.36.47-.6.85-.61,1.78-.06,6.81-.31,7.65-1.44,1.02-1.38,1.52-5.7,2.53-7.15,1.01-1.44,8.34.74,8.88-1.56.48-2.05,3.57-6.37,4.24-7.29.09-.12.19-.21.33-.28,1.25-.63,8.12-4.05,10.22-3.56,2.31.54,4.72-3.67,5.01-5.62.23-1.57-4.17-6.07-5.87-7.73-.36-.36-.37-.93-.03-1.31l5.53-6.01c.76-.82-.29-2.05-1.22-1.42l-36.6,24.58c-.51.34-1.21.11-1.42-.47l-3.17-9.01c-.12-.35-.03-.75.25-1l5.06-4.7c.41-.38.41-1.03-.02-1.4-1-.87-2.88-2.22-4.8-2.1-2.64.17-8.46,5.98-9.16,6.7-.04.06-.08.1-.12.15-.83,1.41-12.25,20.68-19.2,32.11-.9-.66-2.04-.99-3.23-.83-2.41.34-4.09,2.57-3.75,4.98.21,1.47,1.13,2.66,2.35,3.3-.28.42-.49.72-.59.84-.75.86-1.82,1.45-2.74,1.84-1,.42-1.74,1.32-1.93,2.39-.21,1.23-.8,2.76-2.33,3.38-1.81.73-4.22,1.7-5.68,2.29-.81.33-1.42,1.01-1.64,1.86l-1.13,4.26c-.46,1.74-2.11,2.9-3.9,2.75l-4.84-.4c-2.28-.19-3.91-2.29-3.53-4.54l3.4-20.15c.31-1.81,1.44-3.37,3.07-4.22l6.5-3.4c.23-.12.44-.27.65-.43l.18-3.3c.12-2.26,2.04-4.01,4.31-3.91l1.8.08c.28.01.56-.1.74-.31.46-.51.92-1.04,1.39-1.58.44-.51.23-1.31-.42-1.52l-3.18-1.03c-.16-.05-.32-.15-.43-.28-1.22-1.54-.35-3.81,1.57-4.15l1.53-.27c.09-.03.18-.06.27-.09l2.8-1.44c.47-.24.65-.83.39-1.3l-.95-1.7c-.22-.39-.13-.89.22-1.18l4.36-3.69c.37-.32.93-.29,1.28.05l1.85,1.84c.46.46,1.24.32,1.52-.26,1.41-2.98,1.76-5.4.19-6.57-7.68-5.75-27.47,18.63-44.83,27.78-35.77,18.44-42.91,34.03-118.48,107.21-16.65,16.12-21.21.63-22.24-10.5-.07-.78-1-1.13-1.58-.6-31.11,28.19-73.59,133.55-81.9,154.31-.38.96-1.81.68-1.82-.35l-6.04-79.47c0-.91-1.17-1.29-1.7-.55-2.97,4.08-8.42,13.64-8.54,14.85-.16,1.53-6.47,120.63-5.73,123.95.73,3.32,9.8,64.44,9.59,67.97-.2,3.3,7.16,36.13,6.63,40.41-.04.29-.21.55-.46.69l-9.04,5.21c-.54.31-.64,1.06-.19,1.49,4.88,4.68,21.16,32.24,27.79,53.03.3.95,5.1,4.3,5.26,3.31,5.07-32.31,19.88-66.21,23.01-76.18.27-.85-.69-1.55-1.43-1.06l-15.62,10.43c-.66.44-1.53-.08-1.46-.86l1.3-15.65c.02-.24-.05-.48-.21-.67l-4.39-5.41c-.11-.13-.17-.28-.2-.45-.2-1.38-1.11-8.1.31-9.75,1.33-1.55,3.45-7.51,4.09-9.35.12-.34.03-.7-.22-.96l-20.24-20.79c-.34-.35-.36-.89-.05-1.26l4.85-5.86c.29-.34.77-.44,1.17-.23l21.51,11.44c.49.26,1.09.05,1.31-.46l.94-2.22c.17-.4.05-.86-.3-1.12l-7.28-5.47c-.29-.22-.43-.59-.36-.94l1.31-6.4c.12-.6.77-.92,1.32-.66l12.15,5.69c.58.27,1.26-.11,1.34-.74l1.03-8.74c.09-.74.95-1.09,1.53-.62l3.06,2.47c.28.22.4.58.33.93l-1.87,9.01c-.1.48.18.96.65,1.1l3.22.96c.43.13.71.54.67.98l-.57,6.68c-.03.39.18.77.54.94l3.44,1.6c.51.24,1.1-.02,1.28-.54,2.43-7.19,17.44-51.47,21.26-58,4.16-7.12,25.53-20.69,23.97-27.1-1.56-6.41-2.73-21.27-3.23-24.64-.49-3.37-4.65-19.85-4.72-21.32-.07-1.48,13.53-26.57,17.22-33.99,3.69-7.42-5.13,35.79-4.03,38.53.45,1.11,1.15,2.64,1.83,4.08.43.91,1.8.6,1.79-.41-.03-4.34.29-10.61,2.28-12.93,3.08-3.58,20.31-19.71,21.24-20.58.03-.03.05-.05.07-.08.75-.93,13.85-17.11,22.97-19.54,8.76-2.34,82.97-63.6,95.84-70.21.64-.33,1.38.15,1.37.87l-.17,7.08c0,.21.06.42.19.59l9.14,12.22c.31.41.88.5,1.3.21,2.47-1.76,10.36-7.23,12.53-6.88,2.18.36,21.28-8.03,26.15-7.88.66.02,19.47-1.88,29.23-2.05-39.3,12.75-60.26,42.41-60.55,44.82-.4,3.24,4.06,4.11,4.06,4.11l-8.7,8.3-18.62,32.98,2.06,16.01s-12.92,26.28-13.5,34.95c-.92,13.75,13.43,22.22,13.43,22.22l5.77-7.97,22.42-21.95s5.54-2.43,9.66-5.77c2.09-1.7,1.64-9.1,7.5-12.99,5.66-3.76,21.26-9.71,25-12.3,2.91-2.01,16.13,11.86,19.28,9.33.63-.5-2.9-9.83-2.9-9.83,0,0,8.53-3.97,9.04-4.37,3.23-2.5-6.38-9.7-3.38-11.06,13.21-6,78.63-12.26,101.22-4.24,13.47,4.78,23.91,7.99,27.81,15.14,11.87,21.75-6.19,24.29.37,45.19-.69.37-3.03,18.13-6.86,17.81-12.71-1.06-32.39-5.03-36.58-3.42-4.17,1.61-12.43,6.15-8.8,20.36,1.07-4.2,6.38-11.57,11.44-13.1,3.52-1.07,14.15-.09,18.67,2.13-29.41,1.29-18.12,17.96-18.12,17.96,0,0-.99-5.01,1.58-8.58,1.98-2.74,10.48-3.49,21.42-1.06,8.93,1.98,23.57,10.62,6.29,17.27,0,0,16.43,2.15,16.47-6.58.04-8.73-5.95-12.98-5.95-12.98,0,0-1.22-2.22.1-4,1.32-1.79,23.35-16.93,31.33-18.53.17-.03.87-1.91.71-1.91-3.41-.02-9.62-1.11-9.75-2.93,7.35-10.5,6.79-18.64,11.2-32.2,7.77,4.75,16.44,5.99,22.27,12.05,2.9,8,5.23,15.34,2.68,25.05-2.16,8.23,5.63,20.94,5.63,20.94,0,0-7.2,24.31-13.51,22.37-12.19-3.75-25.03-7.3-29.47-6.62-4.42.68-15.43.3-16.81,12.02,3.57-3.18,9-6.9,15.97-6.93,9.24-.05,14.75,3.52,13.72,6.34-.57,1.55-20.78-1.4-23.67,8.94-2.17,7.75,3.58,9.54,3.58,9.54,0,0-3.42-5.9-.39-9.09,3.03-3.19,14.86-3.28,23.48-.22,8.62,3.06,20.76,15.41,2.45,18.22,0,0,15.59,5.61,17.5-2.91,1.91-8.52-3.04-13.96-3.04-13.96,0,0-.24-4.76,1.43-6.23.71-.63,21.08-11.57,34.95-14.76.53-.12.23-1.58.23-1.58,0,0-11.14.57-8.35-2.65,8.99-7.81,4.51-38.05,7.11-38.9.13-.04,37.59,37.15,48.15,66.44,5.26,14.6,35.1,88.17,31.12,115.48-1.69,11.59-12.5,23.78-16.19,35.56-20.34,64.98-64.97,162.32-139.18,224.11,0,0,30.24-4.56,38.25-7.26,6.68-2.25,30,5.26,44.23,6.25,1.02.07,14.08-3.31,13.17-3.78l-32.75-14.17c-.53-.28,4.82-7.72,5.2-8.19l40.4-49.68c.2-.25.51-.38.83-.34l6.03.63c.62.06,1.13-.48,1.03-1.09l-3.53-21.22c-.03-.21,0-.41.1-.6.7-1.31,3.69-6.73,5.18-7.34,1.7-.69,12.02-.92,14.07-.76,1.3.1,2.21,3.18,2.69,5.41.18.81,1.24,1.01,1.7.31l21.39-32.16c.24-.36.7-.51,1.1-.37l19.61,7.03c.59.21.81.92.46,1.43l-28.51,40.86c-.15.21-.37.35-.62.39l-10.87,1.74c-.48.08-.82.51-.79.99l.54,8.49c.03.46-.28.88-.73.98l-8.93,2.06c-.71.16-.98,1.05-.47,1.57l3.43,3.56c.32.34.35.86.07,1.23l-14.19,18.57c-.65.85.38,1.95,1.27,1.36,15.55-10.4,64.31-43.2,65.93-46.36,1.92-3.75,7.06-48.47,9.01-49.76,1.96-1.29,5.44-3.7,8.78-1.58,2.74,1.74,12.88,29.94,16.41,39.93.32.92,1.66.79,1.82-.17,1.91-11.74,7.67-48.03,6.36-51.24-1.39-3.42-2.24-58.01-2.41-69.73-.01-.83.98-1.26,1.59-.7l9.29,8.65c.17.15.27.36.29.59l12.45,49.76c.12,1.11,6.37,11.39,6.52,10.28l-1.15-70.05c0-.05,0-.1,0-.15l-43.72-117.58s-.55-5.72,4.45-6.03c16.15-1,18.97,26.65,29.59,59.12.32.98,8.35,9.93,8.43,8.9.54-6.89.53-13.73.08-20.53.8.25,1.65.36,2.53.23,3.15-.44,5.35-3.36,4.9-6.51-.41-2.9-2.93-5-5.78-4.96ZM319.67,267.43c-2.28,5.98-10.68,12.87-10.68,12.87l.02-10.66,11.23-15.08s2.39,5.13-.56,12.87ZM444.12,241.25c-10.51.27-43.42,14.05-53.57,15.98.73-1.93,0-5.11,2.02-6.4,15.74-10.03,34.15-24.61,34.15-24.61,0,0,2.51-1.81,19.32-3.78,16.81-1.98,25.47-.59,25.47-.59l1.95,20.87s-10.61-1.95-29.34-1.47ZM632.35,258.75c-3.25-2.76-2.46-7.67-2.61-8.38-6.66-31.62-54.25-64.72-77.77-71.61-23.52-6.9-58.74-.92-70.73,5.47-1.97,1.05-1.73,3.79-2.46,4.92,54.17,8.72,90.6,41.36,118.44,50.39-4.79-.29-18.43-.82-29.61-3.68-11.61-2.97-32.38-16.89-49.48-22.57-14.59-4.84-31.83-6.43-43.78-5.91-1.94.08-.65,5.54-2.16,5.6-28.49,1.1-38.92,2.46-44.73,4.48,6.21-12.08,20.68-33.84,15.12-40.99-.75-.97-4.56-3.57-6.78-3.57s-30.86,2.74-30.86,2.74l1.59-4.41s12.85-5.41,34.3-8.72c35.76-5.52,90.74-9.17,115.51-1.15,68.06,22.04,116.08,133.01,151.81,167.35-8.37,0-59.8-56.39-75.78-69.98ZM453.29,789.69l-21.55,15.66,8.23,25.34-21.55-15.66-21.55,15.66,8.23-25.34-21.55-15.66h26.64l8.23-25.34,8.23,25.34h26.64ZM539.58,78.64c.34,2.41-1.34,4.64-3.75,4.98-2.41.34-4.64-1.34-4.98-3.75-.34-2.41,1.34-4.64,3.75-4.98,2.41-.34,4.64,1.34,4.98,3.75ZM594.17,130.55c.34,2.41-1.34,4.64-3.75,4.98-2.41.34-4.64-1.34-4.98-3.75-.34-2.41,1.34-4.64,3.75-4.98,2.41-.34,4.64,1.34,4.98,3.75ZM486.2,87.72c.34,2.41-1.34,4.64-3.75,4.98-2.41.34-4.64-1.34-4.98-3.75-.34-2.41,1.34-4.64,3.75-4.98,2.41-.34,4.64,1.34,4.98,3.75ZM801.36,402.86c.34,2.41-1.34,4.64-3.75,4.98-2.41.34-4.64-1.34-4.98-3.75s1.34-4.64,3.75-4.98c2.41-.34,4.64,1.34,4.98,3.75ZM629.69,125.54c.34,2.41-1.34,4.64-3.75,4.98-2.41.34-4.64-1.34-4.98-3.75-.34-2.41,1.34-4.64,3.75-4.98,2.41-.34,4.64,1.34,4.98,3.75ZM261.92,388.6l87.12,24.72-.05.22c-2.98-.83-52.11-6.18-76.22-.22-18.47,4.57-33.75,15.04-22,33.07,11.75,18.03,77.77,51.87,77.77,51.87l-.22.9-136.85-46.58,70.45-63.98ZM584.19,403.2c.53-2.35.64-4.4.53-6.25l61.01,56.93h-.03s-31.49,2.83-47.39,9.97c-15.9,7.14-77.52,34.82-77.52,34.82h0s-28.45-85.36-28.45-85.36l42.59-14.14c.81.39,1.5.67,2.05.84,0,0,.18-.76.72-1.76l12.52-4.16c5.59.88,11.81,2.95,12.73,4.56,1.49,2.59-8.3,8.38-8.3,8.38.86.31,12.68,6.66,19.23,5.51,5.44-.96,9.21-4.37,10.32-9.35ZM377.78,615.08l-35.99-105.14h166.6l-90.71,221.69-39.9-116.56ZM510.99,363.6c-.6.33-11.68,9.38-12.8,9.81,0,0,13.19,7.61,20.99,5.3-.43,5.55,2.8,10.45,6.71,14.17l-38.34,10.48h-135.15l-82.65-20.78,62.14-31.27h134.01c.47,3.34,1.38,6.96,2.36,10.8l6.95-1.55c1.34,7.78,8.51,7.03,10.01,8.36,0,0,2.64-7.2,5.66-7.26,5.68-.1,8.35-.18,13.77,1.02,3.05.68,4.62-.27,6.33.93ZM369.86,29.66c-.34-2.41,1.34-4.64,3.75-4.98,2.41-.34,4.64,1.34,4.98,3.75.34,2.41-1.34,4.64-3.75,4.98-2.41.34-4.64-1.34-4.98-3.75ZM121.41,645.8l16.72,20.74-25.72-6.95-14.55,22.31-1.34-26.61-25.72-6.95,24.89-9.5-1.34-26.61,16.72,20.74,24.89-9.5-14.55,22.31ZM406.45,39.62c-.34-2.41,1.34-4.64,3.75-4.98,2.41-.34,4.64,1.34,4.98,3.75.34,2.41-1.34,4.64-3.75,4.98-2.41.34-4.64-1.34-4.98-3.75ZM410.08,731.64l-214.55-269.73,130.89,48.03.33.86s-56.16-12.13-48.8,22.92c3.39,16.16,127.99,186.91,127.99,186.91l4.15,11ZM348.97,413.63l.02-.1c.2.05.2.09-.02.1ZM642.18,464.01l-216.91,267.63,98-223.25,118.92-44.38ZM412.62,494.03c-34.61,2.86-71.6,5.91-71.6,5.91l14.16-86.62h131.15l22.05,86.6s-61.16-8.75-95.76-5.89Z"/>
</svg>